<svg width="12" height="16" viewBox="0 0 12 16" fill="none" xmlns="http://www.w3.org/2000/svg">
<path d="M7.5 0C7.63261 0 7.75979 0.0526784 7.85355 0.146447C7.94732 0.240215 8 0.367392 8 0.5C8 0.632608 8.05268 0.759785 8.14645 0.853553C8.24021 0.947322 8.36739 1 8.5 1C8.63261 1 8.75979 1.05268 8.85355 1.14645C8.94732 1.24021 9 1.36739 9 1.5V2C9 2.13261 8.94732 2.25979 8.85355 2.35355C8.75979 2.44732 8.63261 2.5 8.5 2.5H3.5C3.36739 2.5 3.24021 2.44732 3.14645 2.35355C3.05268 2.25979 3 2.13261 3 2V1.5C3 1.36739 3.05268 1.24021 3.14645 1.14645C3.24021 1.05268 3.36739 1 3.5 1C3.63261 1 3.75979 0.947322 3.85355 0.853553C3.94732 0.759785 4 0.632608 4 0.5C4 0.367392 4.05268 0.240215 4.14645 0.146447C4.24021 0.0526784 4.36739 0 4.5 0L7.5 0Z" fill="white"/>
<path d="M1 2.5C1 2.36739 1.05268 2.24021 1.14645 2.14645C1.24021 2.05268 1.36739 2 1.5 2H2C2.13261 2 2.25979 1.94732 2.35355 1.85355C2.44732 1.75979 2.5 1.63261 2.5 1.5C2.5 1.36739 2.44732 1.24021 2.35355 1.14645C2.25979 1.05268 2.13261 1 2 1H1.5C1.10218 1 0.720644 1.15804 0.43934 1.43934C0.158035 1.72064 0 2.10218 0 2.5V14.5C0 14.8978 0.158035 15.2794 0.43934 15.5607C0.720644 15.842 1.10218 16 1.5 16H10.5C10.8978 16 11.2794 15.842 11.5607 15.5607C11.842 15.2794 12 14.8978 12 14.5V2.5C12 2.10218 11.842 1.72064 11.5607 1.43934C11.2794 1.15804 10.8978 1 10.5 1H10C9.86739 1 9.74021 1.05268 9.64645 1.14645C9.55268 1.24021 9.5 1.36739 9.5 1.5C9.5 1.63261 9.55268 1.75979 9.64645 1.85355C9.74021 1.94732 9.86739 2 10 2H10.5C10.6326 2 10.7598 2.05268 10.8536 2.14645C10.9473 2.24021 11 2.36739 11 2.5V14.5C11 14.6326 10.9473 14.7598 10.8536 14.8536C10.7598 14.9473 10.6326 15 10.5 15H1.5C1.36739 15 1.24021 14.9473 1.14645 14.8536C1.05268 14.7598 1 14.6326 1 14.5V2.5Z" fill="white"/>
<path d="M6.5 6.5C6.5 6.36739 6.44732 6.24021 6.35355 6.14645C6.25979 6.05268 6.13261 6 6 6C5.86739 6 5.74021 6.05268 5.64645 6.14645C5.55268 6.24021 5.5 6.36739 5.5 6.5V8H4C3.86739 8 3.74021 8.05268 3.64645 8.14645C3.55268 8.24021 3.5 8.36739 3.5 8.5C3.5 8.63261 3.55268 8.75979 3.64645 8.85355C3.74021 8.94732 3.86739 9 4 9H5.5V10.5C5.5 10.6326 5.55268 10.7598 5.64645 10.8536C5.74021 10.9473 5.86739 11 6 11C6.13261 11 6.25979 10.9473 6.35355 10.8536C6.44732 10.7598 6.5 10.6326 6.5 10.5V9H8C8.13261 9 8.25979 8.94732 8.35355 8.85355C8.44732 8.75979 8.5 8.63261 8.5 8.5C8.5 8.36739 8.44732 8.24021 8.35355 8.14645C8.25979 8.05268 8.13261 8 8 8H6.5V6.5Z" fill="white"/>
</svg>
