<svg width="15" height="15" viewBox="0 0 15 15" fill="none" xmlns="http://www.w3.org/2000/svg">
<path d="M4.6875 6.5625C4.31666 6.5625 3.95415 6.45253 3.64581 6.24651C3.33746 6.04048 3.09714 5.74764 2.95523 5.40503C2.81331 5.06242 2.77618 4.68542 2.84853 4.32171C2.92088 3.95799 3.09945 3.6239 3.36168 3.36168C3.6239 3.09945 3.95799 2.92088 4.32171 2.84853C4.68542 2.77618 5.06242 2.81331 5.40503 2.95523C5.74764 3.09714 6.04048 3.33746 6.24651 3.64581C6.45253 3.95415 6.5625 4.31666 6.5625 4.6875C6.56188 5.18459 6.36414 5.66114 6.01264 6.01264C5.66114 6.36414 5.18459 6.56188 4.6875 6.5625ZM4.6875 3.75C4.50212 3.74982 4.32085 3.80459 4.16659 3.90741C4.01234 4.01023 3.89203 4.15647 3.82088 4.32765C3.74972 4.49883 3.73091 4.68727 3.76683 4.86913C3.80274 5.051 3.89177 5.21814 4.02266 5.34942C4.15355 5.4807 4.32042 5.57023 4.50217 5.60669C4.68393 5.64315 4.87242 5.62491 5.04381 5.55426C5.21521 5.48362 5.36181 5.36375 5.46509 5.20981C5.56837 5.05586 5.62369 4.87476 5.62406 4.68938C5.62431 4.44065 5.52581 4.202 5.3502 4.02586C5.17458 3.84972 4.93623 3.7505 4.6875 3.75Z" fill="white"/>
<path d="M7.80187 13.7883L1.21219 7.19719C1.03647 7.02153 0.937677 6.7833 0.9375 6.53484V1.875C0.9375 1.62636 1.03627 1.3879 1.21209 1.21209C1.3879 1.03627 1.62636 0.9375 1.875 0.9375H6.53484C6.78346 0.937553 7.02188 1.03636 7.19766 1.21219L13.7883 7.80187C13.964 7.97768 14.0628 8.2161 14.0628 8.46469C14.0628 8.71328 13.964 8.95169 13.7883 9.1275L9.1275 13.7883C9.04044 13.8754 8.93707 13.9445 8.82331 13.9916C8.70954 14.0387 8.5876 14.063 8.46445 14.063C8.34131 14.063 8.21937 14.0387 8.1056 13.9916C7.99183 13.9445 7.88847 13.8754 7.80141 13.7883H7.80187ZM1.875 1.875V6.53531L8.46469 13.125L13.125 8.46469L6.53531 1.875H1.875Z" fill="white"/>
</svg>
