<svg width="10" height="11" viewBox="0 0 10 11" fill="none" xmlns="http://www.w3.org/2000/svg">
<path d="M7.77778 8.83334H1.66667V2.72223H5.33889L5.89444 2.16667H1.66667C1.51932 2.16667 1.37802 2.2252 1.27383 2.32939C1.16964 2.43358 1.11111 2.57488 1.11111 2.72223V8.83334C1.11111 8.98068 1.16964 9.12199 1.27383 9.22617C1.37802 9.33036 1.51932 9.38889 1.66667 9.38889H7.77778C7.92512 9.38889 8.06643 9.33036 8.17062 9.22617C8.2748 9.12199 8.33333 8.98068 8.33333 8.83334V4.66667L7.77778 5.22223V8.83334Z" fill="white"/>
<path d="M9.31389 2.12222L8.37778 1.18611C8.33623 1.14445 8.28688 1.1114 8.23254 1.08885C8.1782 1.0663 8.11994 1.05469 8.06111 1.05469C8.00228 1.05469 7.94402 1.0663 7.88968 1.08885C7.83534 1.1114 7.78599 1.14445 7.74444 1.18611L3.93611 5.01667L3.62778 6.35278C3.61464 6.41754 3.61602 6.48442 3.63182 6.54858C3.64762 6.61275 3.67744 6.67262 3.71915 6.72389C3.76085 6.77515 3.81339 6.81654 3.873 6.84507C3.93261 6.8736 3.99781 6.88856 4.06389 6.88889C4.09805 6.89265 4.13251 6.89265 4.16667 6.88889L5.51389 6.59167L9.31389 2.75555C9.35555 2.71401 9.3886 2.66465 9.41115 2.61031C9.4337 2.55598 9.44531 2.49772 9.44531 2.43889C9.44531 2.38005 9.4337 2.3218 9.41115 2.26746C9.3886 2.21312 9.35555 2.16376 9.31389 2.12222ZM5.225 6.07778L4.20833 6.30278L4.44444 5.29444L7.31111 2.40833L8.09444 3.19166L5.225 6.07778ZM8.40833 2.87778L7.625 2.09444L8.05556 1.65555L8.84444 2.44444L8.40833 2.87778Z" fill="white"/>
</svg>
