<svg width="17" height="15" viewBox="0 0 17 15" fill="none" xmlns="http://www.w3.org/2000/svg">
<path d="M10.1786 15C10.3207 15 10.4569 14.9436 10.5574 14.8431C10.6578 14.7426 10.7143 14.6064 10.7143 14.4643C10.7143 14.3222 10.6578 14.1859 10.5574 14.0855C10.4569 13.985 10.3207 13.9286 10.1786 13.9286H3.21429C2.64596 13.9286 2.10092 13.7028 1.69906 13.3009C1.29719 12.8991 1.07143 12.354 1.07143 11.7857V3.21429C1.07143 2.64596 1.29719 2.10092 1.69906 1.69906C2.10092 1.29719 2.64596 1.07143 3.21429 1.07143H10.1786C10.3207 1.07143 10.4569 1.01499 10.5574 0.914521C10.6578 0.814055 10.7143 0.677795 10.7143 0.535714C10.7143 0.393634 10.6578 0.257373 10.5574 0.156907C10.4569 0.0564413 10.3207 0 10.1786 0H3.21429C2.3618 0 1.54424 0.338647 0.941443 0.941443C0.338647 1.54424 0 2.3618 0 3.21429V11.7857C0 12.6382 0.338647 13.4558 0.941443 14.0586C1.54424 14.6614 2.3618 15 3.21429 15H10.1786ZM11.4064 3.37071C11.4562 3.32082 11.5153 3.28124 11.5804 3.25424C11.6455 3.22723 11.7153 3.21333 11.7857 3.21333C11.8562 3.21333 11.926 3.22723 11.991 3.25424C12.0561 3.28124 12.1152 3.32082 12.165 3.37071L15.915 7.12071C15.9649 7.17048 16.0045 7.22959 16.0315 7.29468C16.0585 7.35976 16.0724 7.42953 16.0724 7.5C16.0724 7.57046 16.0585 7.64024 16.0315 7.70532C16.0045 7.77041 15.9649 7.82952 15.915 7.87929L12.165 11.6293C12.1152 11.6791 12.0561 11.7186 11.991 11.7456C11.9259 11.7725 11.8562 11.7864 11.7857 11.7864C11.7153 11.7864 11.6455 11.7725 11.5804 11.7456C11.5154 11.7186 11.4562 11.6791 11.4064 11.6293C11.3566 11.5795 11.3171 11.5203 11.2902 11.4553C11.2632 11.3902 11.2493 11.3204 11.2493 11.25C11.2493 11.1796 11.2632 11.1098 11.2902 11.0447C11.3171 10.9797 11.3566 10.9205 11.4064 10.8707L14.2425 8.03571H4.82143C4.67935 8.03571 4.54309 7.97927 4.44262 7.87881C4.34216 7.77834 4.28571 7.64208 4.28571 7.5C4.28571 7.35792 4.34216 7.22166 4.44262 7.12119C4.54309 7.02073 4.67935 6.96429 4.82143 6.96429H14.2425L11.4064 4.12929C11.3565 4.07952 11.317 4.02041 11.29 3.95532C11.2629 3.89024 11.249 3.82046 11.249 3.75C11.249 3.67953 11.2629 3.60976 11.29 3.54468C11.317 3.47959 11.3565 3.42048 11.4064 3.37071Z" fill="white"/>
</svg>
