<svg width="16" height="11" viewBox="0 0 16 11" fill="none" xmlns="http://www.w3.org/2000/svg">
<path d="M1.39451 9.86181H15.4319C15.576 9.86204 15.7146 9.91695 15.8199 10.0154C15.9251 10.1139 15.989 10.2487 15.9987 10.3925C16.0084 10.5363 15.9633 10.6784 15.8723 10.7902C15.7813 10.9019 15.6513 10.975 15.5085 10.9947L15.4319 11H1.39451C1.2493 11.0014 1.10902 10.9474 1.00239 10.8488C0.89576 10.7502 0.830855 10.6146 0.820964 10.4697C0.811072 10.3248 0.856943 10.1816 0.949182 10.0695C1.04142 9.95729 1.17305 9.88463 1.31712 9.86636L1.39451 9.86181H15.4319H1.39451ZM1.39451 4.93204H15.4319C15.576 4.93228 15.7146 4.98719 15.8199 5.08568C15.9251 5.18418 15.989 5.31892 15.9987 5.46271C16.0084 5.60651 15.9633 5.74863 15.8723 5.8604C15.7813 5.97217 15.6513 6.04525 15.5085 6.06489L15.4319 6.07021H1.39451C1.2493 6.07168 1.10902 6.01759 1.00239 5.919C0.89576 5.82042 0.830855 5.6848 0.820964 5.53992C0.811072 5.39503 0.856943 5.25185 0.949182 5.13969C1.04142 5.02752 1.17305 4.95487 1.31712 4.93659L1.39451 4.93204H15.4319H1.39451ZM1.39375 0H15.4311C15.5753 4.41931e-05 15.7141 0.0548176 15.8194 0.153252C15.9248 0.251687 15.9889 0.386443 15.9987 0.530293C16.0085 0.674143 15.9634 0.816361 15.8724 0.92821C15.7814 1.04006 15.6513 1.1132 15.5085 1.13285L15.4311 1.13816H1.39375C1.24957 1.13812 1.11077 1.08335 1.00542 0.984912C0.90006 0.886477 0.835996 0.75172 0.826168 0.607871C0.81634 0.464021 0.861483 0.321803 0.952473 0.209954C1.04346 0.0981056 1.17352 0.0249652 1.31636 0.00531177L1.39375 0H15.4311H1.39375Z" fill="#DB202C"/>
</svg>
