<svg width="15" height="15" viewBox="0 0 15 15" fill="none" xmlns="http://www.w3.org/2000/svg">
<path d="M8.03451 0.221784C7.96481 0.151508 7.88188 0.0957289 7.79052 0.0576634C7.69915 0.019598 7.60115 0 7.50217 0C7.40319 0 7.30519 0.019598 7.21382 0.0576634C7.12245 0.0957289 7.03952 0.151508 6.96982 0.221784L0.221784 6.96982C0.151508 7.03952 0.0957289 7.12245 0.0576634 7.21382C0.019598 7.30519 0 7.40319 0 7.50217C0 7.60115 0.019598 7.69915 0.0576634 7.79052C0.0957289 7.88188 0.151508 7.96481 0.221784 8.03451C0.291844 8.104 0.374932 8.15898 0.466283 8.19629C0.557635 8.23361 0.655453 8.25252 0.754129 8.25195H1.50391V13.5004C1.50391 13.8981 1.6619 14.2796 1.94312 14.5608C2.22435 14.842 2.60577 15 3.00348 15H12.0009C12.3986 15 12.78 14.842 13.0612 14.5608C13.3424 14.2796 13.5004 13.8981 13.5004 13.5004V8.25195H14.2502C14.4491 8.25195 14.6398 8.17295 14.7804 8.03234C14.921 7.89173 15 7.70102 15 7.50217C15.0006 7.40349 14.9816 7.30567 14.9443 7.21432C14.907 7.12297 14.852 7.03988 14.7825 6.96982L8.03451 0.221784ZM3.00348 13.5004V6.31001L7.50217 1.81132L12.0009 6.31001V13.5004H3.00348Z" fill="#D91023"/>
</svg>
