<svg width="21" height="20" viewBox="0 0 21 20" fill="none" xmlns="http://www.w3.org/2000/svg">
<path d="M10.8363 5.97223C10.8363 5.82488 10.7777 5.68358 10.6736 5.57939C10.5694 5.4752 10.4281 5.41667 10.2807 5.41667C10.1334 5.41667 9.99206 5.4752 9.88788 5.57939C9.78369 5.68358 9.72516 5.82488 9.72516 5.97223V10.8167L13.0029 13.0389C13.0633 13.0843 13.1323 13.1169 13.2057 13.1348C13.2792 13.1526 13.3554 13.1553 13.4299 13.1426C13.5044 13.13 13.5755 13.1023 13.6389 13.0612C13.7023 13.0201 13.7567 12.9665 13.7987 12.9037C13.8407 12.8409 13.8694 12.7702 13.8832 12.6959C13.8969 12.6216 13.8954 12.5453 13.8786 12.4716C13.8618 12.398 13.8302 12.3285 13.7857 12.2675C13.7412 12.2064 13.6846 12.1551 13.6196 12.1167L10.8418 10.2333L10.8363 5.97223Z" fill="white"/>
<path d="M19.0863 8.55001H17.9752C18.2924 10.2188 18.0545 11.9455 17.2979 13.4664C16.5414 14.9873 15.3077 16.2187 13.7854 16.9725C12.2632 17.7262 10.536 17.9609 8.86776 17.6406C7.19955 17.3204 5.68206 16.4628 4.54714 15.1989C3.41221 13.935 2.72226 12.3343 2.5827 10.6414C2.44314 8.94843 2.86164 7.25636 3.77426 5.82367C4.68689 4.39098 6.04345 3.29645 7.63668 2.70732C9.22992 2.11818 10.9722 2.06683 12.5974 2.56112L13.1529 1.58334C11.3694 0.984871 9.44205 0.967682 7.64815 1.53424C5.85426 2.10081 4.28637 3.2219 3.17013 4.73619C2.05389 6.25048 1.44687 8.07986 1.43642 9.96107C1.42597 11.8423 2.01263 13.6783 3.11198 15.2049C4.21133 16.7315 5.76667 17.8699 7.55416 18.4564C9.34165 19.0428 11.2691 19.0471 13.0592 18.4684C14.8492 17.8898 16.4095 16.7582 17.5155 15.2364C18.6216 13.7147 19.2163 11.8812 19.2141 10C19.2112 9.51399 19.1684 9.02903 19.0863 8.55001Z" fill="white"/>
<path d="M10.3252 4.44444C10.6989 4.44882 11.0713 4.49164 11.4363 4.57222L11.9085 3.76111C11.0815 3.55844 10.2224 3.52239 9.38133 3.65507C8.54025 3.78775 7.73399 4.0865 7.00953 4.53391C6.28507 4.98132 5.6569 5.56844 5.16163 6.26107C4.66637 6.95369 4.3139 7.73796 4.12478 8.56817C3.93566 9.39838 3.91367 10.2579 4.06008 11.0967C4.2065 11.9355 4.51839 12.7368 4.97759 13.4538C5.43679 14.1709 6.03411 14.7894 6.73474 15.2732C7.43537 15.7571 8.22529 16.0967 9.05849 16.2722L9.21404 15.3889C7.91504 15.0679 6.77554 14.2888 6.00498 13.1949C5.23441 12.101 4.88455 10.7657 5.0197 9.43444C5.15485 8.10321 5.76593 6.86548 6.74063 5.94873C7.71532 5.03199 8.98814 4.49784 10.3252 4.44444Z" fill="white"/>
<path d="M15.2418 0.63334L12.064 6.11112C11.9901 6.21964 11.9477 6.3465 11.9414 6.47766C11.9352 6.60882 11.9654 6.73915 12.0286 6.8542C12.0919 6.96926 12.1858 7.06454 12.2999 7.1295C12.414 7.19446 12.5439 7.22656 12.6752 7.22223H19.0363C19.1675 7.22656 19.2974 7.19446 19.4115 7.1295C19.5256 7.06454 19.6195 6.96926 19.6828 6.8542C19.7461 6.73915 19.7762 6.60882 19.77 6.47766C19.7638 6.3465 19.7213 6.21964 19.6474 6.11112L16.4696 0.63334C16.4069 0.526149 16.3173 0.437235 16.2096 0.375445C16.1019 0.313655 15.9799 0.281143 15.8557 0.281143C15.7315 0.281143 15.6095 0.313655 15.5018 0.375445C15.3941 0.437235 15.3045 0.526149 15.2418 0.63334Z" fill="white"/>
<rect x="0.825165" y="0.5" width="19" height="19" stroke="black"/>
</svg>
