<svg width="15" height="15" viewBox="0 0 15 15" fill="none" xmlns="http://www.w3.org/2000/svg">
<path d="M8.79416 15C8.90758 15 9.01807 14.964 9.10973 14.8972C9.20138 14.8304 9.26946 14.7362 9.30416 14.6282L9.89345 12.7971C10.141 12.6761 10.3777 12.54 10.6038 12.3868L12.4852 12.7918C12.5962 12.8155 12.7118 12.8033 12.8153 12.7571C12.9189 12.7109 13.0052 12.633 13.0617 12.5346L14.5467 9.96429C14.6034 9.86598 14.6274 9.7522 14.6153 9.63935C14.6031 9.52651 14.5555 9.42044 14.4792 9.33643L13.1881 7.91143C13.2069 7.63818 13.2069 7.36396 13.1881 7.09071L14.4792 5.66357C14.5555 5.57956 14.6031 5.47349 14.6153 5.36065C14.6274 5.2478 14.6034 5.13402 14.5467 5.03571L13.0617 2.46429C13.005 2.36612 12.9187 2.28844 12.8151 2.24242C12.7116 2.19641 12.5961 2.18443 12.4852 2.20821L10.6038 2.61321C10.3788 2.46107 10.141 2.32393 9.89452 2.20286L9.30416 0.371786C9.26946 0.263808 9.20138 0.16963 9.10973 0.102818C9.01807 0.036005 8.90758 3.8147e-06 8.79416 0H5.82416C5.71074 3.8147e-06 5.60025 0.036005 5.5086 0.102818C5.41695 0.16963 5.34887 0.263808 5.31416 0.371786L4.72595 2.20179C4.47911 2.32249 4.24103 2.46033 4.01345 2.61429L2.13309 2.20821C2.02216 2.18453 1.90658 2.19667 1.80299 2.24288C1.6994 2.28909 1.61315 2.36699 1.55666 2.46536L0.0716632 5.03571C0.0149573 5.13402 -0.00906156 5.2478 0.0030699 5.36065C0.0152014 5.47349 0.0628562 5.57956 0.139163 5.66357L1.43023 7.09071C1.41153 7.36325 1.41153 7.63675 1.43023 7.90929L0.139163 9.33643C0.0628562 9.42044 0.0152014 9.52651 0.0030699 9.63935C-0.00906156 9.7522 0.0149573 9.86598 0.0716632 9.96429L1.55666 12.5357C1.6133 12.6339 1.69962 12.7116 1.8032 12.7576C1.90677 12.8036 2.02228 12.8156 2.13309 12.7918L4.01345 12.3857C4.24059 12.5389 4.47845 12.6771 4.72595 12.7982L5.31524 14.6282C5.34983 14.7358 5.41759 14.8298 5.50881 14.8966C5.60003 14.9633 5.71004 14.9995 5.82309 15H8.79309H8.79416ZM8.40202 13.9286H6.21631L5.60774 12.0354L5.19738 11.835C4.99565 11.7363 4.80091 11.6239 4.61452 11.4986L4.23523 11.2414L2.28952 11.6614L1.19666 9.76714L2.53059 8.29071L2.49845 7.83643C2.48305 7.61241 2.48305 7.38759 2.49845 7.16357L2.53059 6.70929L1.19452 5.23286L2.28845 3.33857L4.23416 3.7575L4.61345 3.50143C4.79983 3.37612 4.99458 3.26372 5.19631 3.165L5.60666 2.96464L6.21631 1.07143H8.40416L9.01488 2.96571L9.42416 3.165C9.62568 3.26349 9.82008 3.3759 10.0059 3.50143L10.3842 3.7575L12.331 3.33857L13.4238 5.23286L12.0888 6.70929L12.121 7.16357C12.1364 7.38795 12.1364 7.61312 12.121 7.8375L12.0888 8.29179L13.4249 9.76714L12.331 11.6614L10.3842 11.2436L10.0059 11.4986C9.82009 11.6241 9.62569 11.7365 9.42416 11.835L9.01488 12.0343L8.40309 13.9286H8.40202ZM7.30916 10.7143C8.16164 10.7143 8.97921 10.3756 9.58201 9.77284C10.1848 9.17005 10.5234 8.35248 10.5234 7.5C10.5234 6.64752 10.1848 5.82995 9.58201 5.22716C8.97921 4.62436 8.16164 4.28572 7.30916 4.28572C6.45668 4.28572 5.63912 4.62436 5.03632 5.22716C4.43353 5.82995 4.09488 6.64752 4.09488 7.5C4.09488 8.35248 4.43353 9.17005 5.03632 9.77284C5.63912 10.3756 6.45668 10.7143 7.30916 10.7143ZM7.30916 9.64286C6.74084 9.64286 6.1958 9.41709 5.79393 9.01523C5.39207 8.61337 5.16631 8.06832 5.16631 7.5C5.16631 6.93168 5.39207 6.38664 5.79393 5.98477C6.1958 5.58291 6.74084 5.35714 7.30916 5.35714C7.87748 5.35714 8.42253 5.58291 8.82439 5.98477C9.22626 6.38664 9.45202 6.93168 9.45202 7.5C9.45202 8.06832 9.22626 8.61337 8.82439 9.01523C8.42253 9.41709 7.87748 9.64286 7.30916 9.64286Z" fill="white"/>
</svg>
