<svg width="190" height="49" viewBox="0 0 190 49" fill="none" xmlns="http://www.w3.org/2000/svg">
<path d="M126.453 0V35.6925C131.019 35.8974 135.574 36.145 140.116 36.4371V44.0043C132.936 43.5429 125.727 43.1907 118.487 42.9506V0H126.453ZM189.757 0.0042285L179.384 23.1909L189.754 48.9934L189.743 48.9983C186.722 48.5827 183.697 48.1905 180.663 47.8144L174.839 33.3326L168.96 46.4701C166.174 46.1735 163.384 45.8928 160.587 45.6298L170.7 23.0359L161.439 0.0042285H170.057L175.242 12.893L181.008 0.0042285H189.757ZM91.1465 42.5755L91.1463 0.00409167H113.384V7.63936H99.1126V17.535H109.911V25.1023H99.1126V42.5738L91.1465 42.5755ZM61.4005 7.64L61.4002 0.00369366H86.0396V7.63946H77.7028V42.7827C75.0439 42.8497 72.3877 42.9293 69.737 43.0257V7.64H61.4005ZM34.1672 45.2256V0.00497465H56.2939V7.64025H42.1322V17.9829C45.3857 17.9427 50.0116 17.8972 52.8896 17.9039V25.4718C49.2871 25.4286 45.2206 25.5194 42.1322 25.5491V37.0057C46.839 36.6488 51.56 36.3366 56.2939 36.0729V43.6409C48.8848 44.0524 41.5089 44.5825 34.1672 45.2256ZM18.5402 27.7318L18.5397 0.00373107H26.506V45.939C23.5939 46.2278 20.6872 46.5351 17.7856 46.8596L8.56116 21.3096V47.954C5.90065 48.288 3.24555 48.6363 0.595352 49V0.0042285H8.16594L18.5402 27.7318ZM146.688 44.4608V44.4609V0.00427803H154.654V45.0951C152.002 44.8675 149.347 44.657 146.688 44.4608Z" fill="#DB202C"/>
</svg>
